<svg xmlns="http://www.w3.org/2000/svg" xmlns:xlink="http://www.w3.org/1999/xlink" width="175" height="175" version="1.1" viewBox="0 0 175 175"><title>iPhone 8</title><desc>Created with Sketch.</desc><g id="iPhone-8" fill="none" fill-rule="evenodd" stroke="none" stroke-width="1"><g id="Group-2" transform="translate(43.000000, 20.000000)"><g id="Group"><polygon id="Rectangle" fill="#F79181" points="10.308 30.959 74.095 30.922 70.693 36.867 7.049 36.953" transform="translate(40.572280, 33.937322) rotate(-60.000000) translate(-40.572280, -33.937322)"/><polygon id="Rectangle" fill="#CB837A" points="39.461 21.269 56.299 21.249 52.947 27.18 35.992 27.217" transform="translate(46.145574, 24.232825) rotate(-60.000000) translate(-46.145574, -24.232825)"/><polygon id="Rectangle" fill="#503863" points="15.758 52.424 26.444 52.424 29.883 58.485 15.758 58.485"/><polygon id="Rectangle" fill="#573F6A" points="24.386 26.278 80.99 26.355 84.48 32.47 20.842 32.416" transform="translate(52.660954, 29.373989) rotate(60.000000) translate(-52.660954, -29.373989)"/><polygon id="Rectangle" fill="#573F6A" points="-9.087 32.554 61.097 32.436 57.863 38.799 -5.588 38.615" transform="translate(26.004884, 35.617814) rotate(-60.000000) translate(-26.004884, -35.617814)"/><polygon id="Rectangle" fill="#EF9688" points="-10.298 30.959 53.489 30.922 50.042 36.786 -13.557 36.953" transform="translate(19.966219, 33.937322) rotate(-60.000000) translate(-19.966219, -33.937322)"/><polygon id="Rectangle" fill="#EF9688" points="18.167 30.916 81.786 30.875 78.01 36.719 14.731 36.964" transform="translate(48.258519, 33.919243) scale(-1, 1) rotate(-60.000000) translate(-48.258519, -33.919243)"/><polygon id="Rectangle" fill="#573F6A" points="24.386 26.278 80.99 26.355 84.48 32.47 20.842 32.416" transform="translate(52.660954, 29.373989) rotate(60.000000) translate(-52.660954, -29.373989)"/><polygon id="Rectangle" fill="#573F6A" points="-9.087 32.554 61.097 32.436 57.863 38.799 -5.588 38.615" transform="translate(26.004884, 35.617814) rotate(-60.000000) translate(-26.004884, -35.617814)"/><polygon id="Rectangle" fill="#F79181" points="-10.298 30.959 53.489 30.922 50.086 36.867 -13.557 36.953" transform="translate(19.966219, 33.937322) rotate(-60.000000) translate(-19.966219, -33.937322)"/><polygon id="Rectangle" fill="#B6576E" points="11.519 32.554 81.703 32.436 78.469 38.799 15.018 38.615" transform="translate(46.610944, 35.617814) rotate(-60.000000) translate(-46.610944, -35.617814)"/><polygon id="Rectangle" fill="#503863" points="44.114 27.8 107.722 27.919 104.207 33.992 40.57 33.938" transform="translate(74.145655, 30.895839) rotate(60.000000) translate(-74.145655, -30.895839)"/><polygon id="Rectangle" fill="#F79181" points="38.773 30.916 102.392 30.875 98.616 36.719 35.337 36.964" transform="translate(68.864580, 33.919243) scale(-1, 1) rotate(-60.000000) translate(-68.864580, -33.919243)"/><rect id="Rectangle" width="22.424" height="6.061" x="65.455" y="52.424" fill="#503863"/><polygon id="Rectangle" fill="#F79181" points="18.167 30.916 81.786 30.875 78.01 36.719 14.731 36.964" transform="translate(48.258519, 33.919243) scale(-1, 1) rotate(-60.000000) translate(-48.258519, -33.919243)"/><polygon id="Rectangle" fill="#B6576E" points="-9.087 32.554 61.097 32.436 57.863 38.799 -5.588 38.615" transform="translate(26.004884, 35.617814) rotate(-60.000000) translate(-26.004884, -35.617814)"/><polygon id="Rectangle" fill="#503863" points="24.386 26.278 80.99 26.355 84.48 32.47 20.842 32.416" transform="translate(52.660954, 29.373989) rotate(60.000000) translate(-52.660954, -29.373989)"/><polygon id="Rectangle" fill="#F79181" points="-10.298 30.959 53.489 30.922 50.086 36.867 -13.557 36.953" transform="translate(19.966219, 33.937322) rotate(-60.000000) translate(-19.966219, -33.937322)"/><polygon id="Rectangle" fill="#F79181" points="18.167 30.916 81.786 30.875 78.01 36.719 14.731 36.964" transform="translate(48.258519, 33.919243) scale(-1, 1) rotate(-60.000000) translate(-48.258519, -33.919243)"/><polygon id="Rectangle" fill="#B6576E" points="65.876 58.485 93.615 58.485 90.321 64.477 62.38 64.477"/><polygon id="Rectangle" fill="#B6576E" points="12.121 58.485 32.121 58.485 32.121 64.477 12.121 64.477"/></g><g id="Group" transform="translate(46.969697, 106.060606) scale(1, -1) translate(-46.969697, -106.060606) translate(0.000000, 72.121212)"><polygon id="Rectangle" fill="#F79181" points="10.308 30.959 74.095 30.922 70.693 36.867 7.049 36.953" transform="translate(40.572280, 33.937322) rotate(-60.000000) translate(-40.572280, -33.937322)"/><polygon id="Rectangle" fill="#CB837A" points="39.461 21.269 56.299 21.249 52.947 27.18 35.992 27.217" transform="translate(46.145574, 24.232825) rotate(-60.000000) translate(-46.145574, -24.232825)"/><polygon id="Rectangle" fill="#503863" points="15.758 52.424 26.444 52.424 29.883 58.485 15.758 58.485"/><polygon id="Rectangle" fill="#573F6A" points="24.386 26.278 80.99 26.355 84.48 32.47 20.842 32.416" transform="translate(52.660954, 29.373989) rotate(60.000000) translate(-52.660954, -29.373989)"/><polygon id="Rectangle" fill="#573F6A" points="-9.087 32.554 61.097 32.436 57.863 38.799 -5.588 38.615" transform="translate(26.004884, 35.617814) rotate(-60.000000) translate(-26.004884, -35.617814)"/><polygon id="Rectangle" fill="#EF9688" points="-10.298 30.959 53.489 30.922 50.042 36.786 -13.557 36.953" transform="translate(19.966219, 33.937322) rotate(-60.000000) translate(-19.966219, -33.937322)"/><polygon id="Rectangle" fill="#EF9688" points="18.167 30.916 81.786 30.875 78.01 36.719 14.731 36.964" transform="translate(48.258519, 33.919243) scale(-1, 1) rotate(-60.000000) translate(-48.258519, -33.919243)"/><polygon id="Rectangle" fill="#573F6A" points="24.386 26.278 80.99 26.355 84.48 32.47 20.842 32.416" transform="translate(52.660954, 29.373989) rotate(60.000000) translate(-52.660954, -29.373989)"/><polygon id="Rectangle" fill="#573F6A" points="-9.087 32.554 61.097 32.436 57.863 38.799 -5.588 38.615" transform="translate(26.004884, 35.617814) rotate(-60.000000) translate(-26.004884, -35.617814)"/><polygon id="Rectangle" fill="#F79181" points="-10.298 30.959 53.489 30.922 50.086 36.867 -13.557 36.953" transform="translate(19.966219, 33.937322) rotate(-60.000000) translate(-19.966219, -33.937322)"/><polygon id="Rectangle" fill="#B6576E" points="11.519 32.554 81.703 32.436 78.469 38.799 15.018 38.615" transform="translate(46.610944, 35.617814) rotate(-60.000000) translate(-46.610944, -35.617814)"/><polygon id="Rectangle" fill="#503863" points="44.114 27.8 107.722 27.919 104.207 33.992 40.57 33.938" transform="translate(74.145655, 30.895839) rotate(60.000000) translate(-74.145655, -30.895839)"/><polygon id="Rectangle" fill="#F79181" points="38.773 30.916 102.392 30.875 98.616 36.719 35.337 36.964" transform="translate(68.864580, 33.919243) scale(-1, 1) rotate(-60.000000) translate(-68.864580, -33.919243)"/><rect id="Rectangle" width="22.424" height="6.061" x="65.455" y="52.424" fill="#503863"/><polygon id="Rectangle" fill="#F79181" points="18.167 30.916 81.786 30.875 78.01 36.719 14.731 36.964" transform="translate(48.258519, 33.919243) scale(-1, 1) rotate(-60.000000) translate(-48.258519, -33.919243)"/><polygon id="Rectangle" fill="#B6576E" points="-9.087 32.554 61.097 32.436 57.863 38.799 -5.588 38.615" transform="translate(26.004884, 35.617814) rotate(-60.000000) translate(-26.004884, -35.617814)"/><polygon id="Rectangle" fill="#503863" points="24.386 26.278 80.99 26.355 84.48 32.47 20.842 32.416" transform="translate(52.660954, 29.373989) rotate(60.000000) translate(-52.660954, -29.373989)"/><polygon id="Rectangle" fill="#F79181" points="-10.298 30.959 53.489 30.922 50.086 36.867 -13.557 36.953" transform="translate(19.966219, 33.937322) rotate(-60.000000) translate(-19.966219, -33.937322)"/><polygon id="Rectangle" fill="#F79181" points="18.167 30.916 81.786 30.875 78.01 36.719 14.731 36.964" transform="translate(48.258519, 33.919243) scale(-1, 1) rotate(-60.000000) translate(-48.258519, -33.919243)"/><polygon id="Rectangle" fill="#B6576E" points="65.876 58.485 93.615 58.485 90.321 64.477 62.38 64.477"/><polygon id="Rectangle" fill="#B6576E" points="12.121 58.485 32.121 58.485 32.121 64.477 12.121 64.477"/></g></g></g></svg>